<svg width="48" height="36" viewBox="0 0 48 36" fill="none" xmlns="http://www.w3.org/2000/svg">
<path d="M0.286064 0.393273C-0.338761 1.10967 0.115657 5.21521 1.1097 8.24614C3.6374 15.851 9.88565 21.6373 17.8948 23.7314C21.3313 24.6132 26.6707 24.6132 30.1073 23.7314C37.4916 21.8027 43.4558 16.7327 46.2959 9.98203C47.3468 7.44707 48 4.52636 48 2.37715C48 0.0350723 47.7728 -0.130251 44.9611 0.117734C37.1792 0.834136 30.2493 5.02233 26.3299 11.4148L25.1371 13.3436L24.9951 6.86844L24.8531 0.393273H24.001H23.149L23.007 6.86844L22.865 13.3161L21.7289 11.4424C18.1788 5.5183 11.5329 1.24744 4.40423 0.255504C1.62092 -0.130251 0.683681 -0.0751434 0.286064 0.393273ZM6.81833 2.92823C10.7093 3.89262 15.4239 6.92355 18.0652 10.1198C20.5077 13.1232 22.6946 18.3584 22.723 21.2791V22.3537L21.2461 22.1609C15.7079 21.4169 10.5957 18.6615 7.10234 14.5009C4.57464 11.5251 2.27415 6.12449 2.27415 3.17622V2.12917L3.77941 2.32205C4.57464 2.43226 5.9663 2.7078 6.81833 2.92823ZM45.7279 3.20377C45.7279 6.01427 43.4558 11.4424 41.0701 14.3631C37.6904 18.4962 32.3226 21.4169 26.7843 22.1609L25.2791 22.3537V21.3067C25.2791 18.5237 27.2956 13.5365 29.6529 10.5331C32.777 6.5378 37.6336 3.56197 42.5754 2.59759C45.6427 2.01895 45.7279 2.01895 45.7279 3.20377Z" fill="white"/>
<path d="M1.13812 31.2536V35.8H3.97824H6.81835V35.1112C6.81835 34.4499 6.76155 34.4223 4.97228 34.4223H3.1262V33.1824V31.9425H4.83027H6.53434V31.1159V30.2893H4.83027H3.1262V29.3249V28.3605H4.91548H6.67635V27.5339V26.7073H3.92144H1.13812V31.2536Z" fill="white"/>
<path d="M9.062 26.7624C9.0336 26.8175 8.89159 28.8565 8.69278 31.3363L8.38037 35.8H9.26081H10.1696L10.3685 32.1354L10.5957 28.4983L10.9933 30.0137C12.4985 35.8 12.4985 35.8 13.3506 35.8C14.089 35.8 14.1458 35.6623 15.0262 32.8242C15.5375 31.1985 16.0487 29.5729 16.1623 29.1871C16.3043 28.7187 16.4747 29.7106 16.6167 32.1354L16.8155 35.8H17.7812H18.7184L18.5764 33.9264C18.5196 32.9069 18.3776 30.8679 18.2924 29.38L18.122 26.7073H16.7871H15.4239L14.6286 29.5178C13.5494 33.3202 13.4926 33.3753 13.0666 31.6394C12.8678 30.8128 12.4701 29.38 12.1577 28.4156L11.6181 26.7073H10.3685C9.65842 26.7073 9.062 26.7348 9.062 26.7624Z" fill="white"/>
<path d="M20.9337 26.8726C20.4793 27.0103 20.4509 27.4236 20.5077 31.4741L20.5929 35.9378H22.865C25.8471 35.9103 27.1536 35.3316 28.0624 33.5957C29.2837 31.2536 28.5737 28.3329 26.5288 27.3961C25.4495 26.9001 21.9846 26.5695 20.9337 26.8726ZM25.4495 28.7738C25.8187 28.9942 26.2732 29.6831 26.4436 30.2893C27.1252 32.4936 25.4779 34.6979 23.1774 34.6979H22.439V31.5843C22.439 29.8484 22.5242 28.3605 22.6662 28.2503C22.9502 27.9472 24.6543 28.2503 25.4495 28.7738Z" fill="white"/>
<path d="M30.1073 29.6555C30.1073 33.0447 30.3913 34.3397 31.3285 35.1939C32.209 36.0205 34.2255 36.2409 35.5603 35.7174C37.2076 35.0561 37.6052 34.0366 37.7188 30.0688L37.8324 26.7073H36.8384H35.8443L35.7307 30.179C35.6455 33.2375 35.5887 33.6784 35.1059 34.0366C34.3107 34.5877 33.3166 34.505 32.6634 33.8713C32.1522 33.3753 32.0954 32.962 32.0954 30.0137V26.7073H31.1013H30.1073V29.6555Z" fill="white"/>
<path d="M40.2749 26.9001C39.8205 27.0103 39.7637 27.4512 39.7637 31.419V35.8H40.7577H41.7518V34.009C41.7518 32.3007 41.7802 32.218 42.405 32.218C43.3138 32.218 43.9102 32.9344 44.3079 34.4775C44.6487 35.7174 44.7055 35.8 45.6143 35.8C46.1539 35.8 46.5799 35.6623 46.5799 35.497C46.5799 34.7806 45.6711 32.2456 45.3019 31.9425C44.9611 31.667 45.0179 31.5292 45.6143 31.0057C46.5231 30.2893 46.6368 28.6085 45.8699 27.7819C45.0179 26.9001 42.0926 26.4317 40.2749 26.9001ZM44.2227 28.6636C45.1599 29.4351 44.1943 30.8403 42.689 30.8403C41.7802 30.8403 41.7518 30.8128 41.7518 29.6555C41.7518 28.9942 41.837 28.3605 41.9506 28.2503C42.2346 27.9747 43.7114 28.2778 44.2227 28.6636Z" fill="white"/>
</svg>
